<?xml version="1.0" encoding="ISO-8859-1" standalone="no"?><svg xmlns="http://www.w3.org/2000/svg" version="1.1" xmlns:xlink="http://www.w3.org/1999/xlink"  >
<circle cy="30.0" cx="150.0" r="20" style="stroke:black; stroke-width:1; fill:none; "  />
<text style="text-anchor:middle; alignment-baseline:central; " y="30.0" x="150.0"  >
714</text>
<circle cy="90.0" cx="25.0" r="20" style="stroke:black; stroke-width:1; fill:none; "  />
<text style="text-anchor:middle; alignment-baseline:central; " y="90.0" x="25.0"  >
23</text>
<line y1="50.0" x2="25.0" style="stroke:black; stroke-width:1; " x1="150.0" y2="70.0"  />
<circle cy="90.0" cx="125.0" r="20" style="stroke:black; stroke-width:1; fill:none; "  />
<text style="text-anchor:middle; alignment-baseline:central; " y="90.0" x="125.0"  >
2</text>
<line y1="50.0" x2="125.0" style="stroke:black; stroke-width:1; " x1="150.0" y2="70.0"  />
<circle cy="150.0" cx="100.0" r="20" style="stroke:black; stroke-width:1; fill:none; "  />
<text style="text-anchor:middle; alignment-baseline:central; " y="150.0" x="100.0"  >
3</text>
<line y1="110.0" x2="100.0" style="stroke:black; stroke-width:1; " x1="125.0" y2="130.0"  />
<circle cy="210.0" cx="75.0" r="20" style="stroke:black; stroke-width:1; fill:none; "  />
<text style="text-anchor:middle; alignment-baseline:central; " y="210.0" x="75.0"  >
562</text>
<line y1="170.0" x2="75.0" style="stroke:black; stroke-width:1; " x1="100.0" y2="190.0"  />
<circle cy="210.0" cx="125.0" r="20" style="stroke:black; stroke-width:1; fill:none; "  />
<text style="text-anchor:middle; alignment-baseline:central; " y="210.0" x="125.0"  >
733</text>
<line y1="170.0" x2="125.0" style="stroke:black; stroke-width:1; " x1="100.0" y2="190.0"  />
<circle cy="270.0" cx="125.0" r="20" style="stroke:black; stroke-width:1; fill:none; "  />
<text style="text-anchor:middle; alignment-baseline:central; " y="270.0" x="125.0"  >
1</text>
<line y1="230.0" x2="125.0" style="stroke:black; stroke-width:1; " x1="125.0" y2="250.0"  />
<circle cy="150.0" cx="175.0" r="20" style="stroke:black; stroke-width:1; fill:none; "  />
<text style="text-anchor:middle; alignment-baseline:central; " y="150.0" x="175.0"  >
77</text>
<line y1="110.0" x2="175.0" style="stroke:black; stroke-width:1; " x1="125.0" y2="130.0"  />
<circle cy="90.0" cx="250.0" r="20" style="stroke:black; stroke-width:1; fill:none; "  />
<text style="text-anchor:middle; alignment-baseline:central; " y="90.0" x="250.0"  >
9999</text>
<line y1="50.0" x2="250.0" style="stroke:black; stroke-width:1; " x1="150.0" y2="70.0"  />
<circle cy="150.0" cx="225.0" r="20" style="stroke:black; stroke-width:1; fill:none; "  />
<text style="text-anchor:middle; alignment-baseline:central; " y="150.0" x="225.0"  >
13</text>
<line y1="110.0" x2="225.0" style="stroke:black; stroke-width:1; " x1="250.0" y2="130.0"  />
<circle cy="210.0" cx="225.0" r="20" style="stroke:black; stroke-width:1; fill:none; "  />
<text style="text-anchor:middle; alignment-baseline:central; " y="210.0" x="225.0"  >
871</text>
<line y1="170.0" x2="225.0" style="stroke:black; stroke-width:1; " x1="225.0" y2="190.0"  />
<circle cy="150.0" cx="275.0" r="20" style="stroke:black; stroke-width:1; fill:none; "  />
<text style="text-anchor:middle; alignment-baseline:central; " y="150.0" x="275.0"  >
42</text>
<line y1="110.0" x2="275.0" style="stroke:black; stroke-width:1; " x1="250.0" y2="130.0"  />
</svg>
